# xmcd
#
# Track frame offsets:
#	150
#	22720
#	40035
#	55547
#	79157
#	97357
#	110072
#	131392
#	145557
#	161682
#	173802
#	191337
#
# Disc length: 2791 seconds
#
# Revision: 2
# Processed by: cddbd v1.4PL0 Copyright (c) Steve Scherf et al.
# Submitted via: CDmax 1.8
#
DISCID=910ae50c
DTITLE=Rawlins Cross - Reel 'n' Roll
DYEAR=1993
DGENRE=Rock
TTITLE0=Reel 'n' Roll
TTITLE1=Don't You Be The One
TTITLE2=It'll Have To Wait
TTITLE3=Long Night
TTITLE4=The Wedding Gift
TTITLE5=Pedestrian Again
TTITLE6=Mystery Tonight
TTITLE7=Dance Hall
TTITLE8=Ghost Of Love
TTITLE9=Turn Of The Wheel
TTITLE10=Colleen
TTITLE11=Macpherson's Lament
EXTD=
EXTT0=
EXTT1=
EXTT2=
EXTT3=
EXTT4=
EXTT5=
EXTT6=
EXTT7=
EXTT8=
EXTT9=
EXTT10=
EXTT11=
PLAYORDER=
